<svg width="44" height="44" viewBox="0 0 44 44" fill="none" xmlns="http://www.w3.org/2000/svg">
<rect width="43.94" height="43.96" rx="21.97" fill="white"/>
<path d="M27.957 14.301L26.248 13.26L28.234 10L29.943 11.041L27.957 14.301ZM33.118 14.507L29.787 16.011L30.609 17.833L33.94 16.329L33.118 14.507ZM27.578 16.257C29.119 17.774 29.968 19.799 29.968 21.96C29.968 24.255 28.978 26.441 27.25 27.959C26.436 28.676 25.968 29.792 25.968 31.023V33.96H17.968V30.89C17.968 29.735 17.515 28.679 16.724 27.993C14.888 26.4 13.886 24.095 13.974 21.667C14.123 17.488 17.649 14.031 21.832 13.962C23.982 13.92 26.037 14.74 27.578 16.257ZM23.968 31.024C23.968 30.662 24.004 30.308 24.06 29.961H19.891C19.937 30.266 19.968 30.575 19.968 30.891V31.961H23.968V31.024ZM27.968 21.961C27.968 20.34 27.331 18.82 26.175 17.684C25.02 16.546 23.484 15.933 21.865 15.962C18.727 16.014 16.084 18.606 15.971 21.739C15.906 23.559 16.658 25.288 18.033 26.483C18.514 26.9 18.912 27.402 19.221 27.961H20.966V23.777C19.805 23.363 18.966 22.263 18.966 20.961H20.966C20.966 21.513 21.414 21.961 21.966 21.961C22.518 21.961 22.966 21.513 22.966 20.961H24.966C24.966 22.263 24.127 23.363 22.966 23.777V27.961H24.733C25.045 27.392 25.446 26.882 25.928 26.458C27.223 25.319 27.966 23.681 27.966 21.961H27.968ZM17.693 13.26L15.707 10L13.998 11.041L15.983 14.301L17.693 13.26ZM10.822 14.507L10 16.329L13.33 17.833L14.152 16.011L10.822 14.507Z" fill="black"/>
</svg>
