<svg width="44" height="44" viewBox="0 0 44 44" fill="none" xmlns="http://www.w3.org/2000/svg">
<rect width="43.9983" height="44" rx="21.9991" fill="white"/>
<path d="M33.1208 28.879L25.4408 21.198L24.0297 22.596L19.0198 17.586V13.422L13.1288 10.025L10.0438 13.109L13.4418 19H17.6058L22.6088 24.003L21.1778 25.42L28.8778 33.121C29.4448 33.687 30.1978 34 30.9998 34C31.8018 34 32.5548 33.688 33.1208 33.121C34.2908 31.951 34.2908 30.049 33.1208 28.879ZM17.0198 17H14.5978L12.5438 13.439L13.4588 12.523L17.0208 14.578L17.0198 17ZM31.7068 31.707C31.3298 32.086 30.6707 32.086 30.2927 31.707L24.0127 25.428L25.4338 24.021L31.7057 30.293C32.0957 30.683 32.0957 31.317 31.7057 31.707H31.7068ZM20.9998 16.863V12.374C22.3688 10.917 24.3067 10 26.4597 10C27.6407 10 28.7777 10.272 29.8407 10.811L31.0718 11.435L26.2528 16.253C26.0638 16.442 25.9598 16.693 25.9598 16.96C25.9598 17.227 26.0638 17.478 26.2518 17.666C26.6308 18.045 27.2887 18.044 27.6667 17.666L32.4897 12.843L33.1178 14.057C33.6758 15.134 33.9587 16.292 33.9587 17.499C33.9587 20.049 32.6778 22.302 30.7278 23.657L29.2808 22.21C30.8818 21.247 31.9587 19.498 31.9587 17.498C31.9587 17.1 31.9168 16.709 31.8328 16.327L29.0807 19.079C27.9107 20.248 26.0078 20.249 24.8378 19.079C24.2718 18.514 23.9587 17.76 23.9587 16.958C23.9587 16.156 24.2708 15.403 24.8378 14.837L27.5648 12.11C27.2028 12.036 26.8347 11.998 26.4597 11.998C23.6427 11.998 21.3168 14.128 20.9998 16.861V16.863ZM19.1707 26.242L20.5848 27.656L15.1198 33.121C14.5538 33.687 13.7998 34 12.9988 34C12.1978 34 11.4437 33.688 10.8767 33.121C9.70775 31.951 9.70775 30.049 10.8767 28.879L17.7657 21.99L19.1798 23.404L12.2908 30.293C11.9008 30.683 11.9008 31.317 12.2908 31.707C12.6688 32.086 13.3278 32.086 13.7048 31.707L19.1707 26.242Z" fill="black"/>
</svg>
